<svg width="230" height="235" viewBox="0 0 230 235" fill="none" xmlns="http://www.w3.org/2000/svg">
<g clip-path="url(#clip0)">
<path d="M115.857 235.001C191.914 235.001 229.944 195.947 229.944 117.829C229.944 39.279 191.914 0.0156097 115.857 0.0156097C38.6104 0.0156097 0 39.279 0 117.829C3.4313 195.947 42.0472 235.001 115.857 235.001Z" fill="url(#paint0_linear)"/>
<path d="M65.5366 150.689C61.4551 150.689 58.0829 147.352 58.0829 143.219V78.4557C58.0829 74.3301 61.4551 70.9805 65.5366 70.9805C67.5112 70.9801 69.405 71.7674 70.8018 73.1692C72.1985 74.571 72.9838 76.4725 72.9849 78.4557V143.219C72.9847 144.201 72.7918 145.173 72.4173 146.08C72.0428 146.987 71.494 147.811 70.8023 148.505C70.1105 149.199 69.2894 149.749 68.3859 150.123C67.4824 150.498 66.5142 150.69 65.5366 150.689ZM117.185 187.506C116.208 187.506 115.241 187.313 114.339 186.938C113.436 186.562 112.617 186.011 111.927 185.317C111.237 184.622 110.69 183.798 110.318 182.891C109.946 181.984 109.756 181.012 109.759 180.031V100.888C109.759 96.7667 113.072 93.4171 117.185 93.4171C118.163 93.4146 119.132 93.606 120.036 93.9803C120.94 94.3547 121.761 94.9046 122.453 95.5986C123.145 96.2926 123.694 97.1169 124.068 98.0244C124.442 98.9319 124.634 99.9046 124.633 100.887V180.029C124.636 181.012 124.445 181.986 124.072 182.895C123.698 183.803 123.15 184.629 122.457 185.324C121.765 186.018 120.943 186.569 120.038 186.944C119.133 187.318 118.164 187.509 117.185 187.506ZM168.844 171.897C166.871 171.896 164.978 171.109 163.582 169.709C162.186 168.309 161.4 166.409 161.396 164.427V54.9725C161.396 53.9908 161.589 53.0187 161.964 52.1119C162.338 51.205 162.887 50.3813 163.579 49.6876C164.271 48.9939 165.092 48.4439 165.995 48.069C166.899 47.6942 167.867 47.5018 168.844 47.5029C169.822 47.5014 170.791 47.6935 171.694 48.0682C172.598 48.4428 173.42 48.9927 174.112 49.6864C174.804 50.3801 175.354 51.204 175.729 52.111C176.104 53.018 176.297 53.9904 176.298 54.9725V164.427C176.298 168.542 172.959 171.897 168.844 171.897Z" fill="#FAF9F5"/>
</g>
<defs>
<linearGradient id="paint0_linear" x1="0" y1="117.508" x2="229.944" y2="117.508" gradientUnits="userSpaceOnUse">
<stop stop-color="#DB652E"/>
<stop offset="1" stop-color="#F58220"/>
</linearGradient>
<clipPath id="clip0">
<rect width="230" height="235" fill="white"/>
</clipPath>
</defs>
</svg>
