<svg width="18" height="20" viewBox="0 0 18 20" fill="none" xmlns="http://www.w3.org/2000/svg">
<path d="M2.34073 17.4397L4.65297 10.5016L15.0595 10.5023L2.34073 17.4397ZM2.34073 2.56357L15.0595 9.50241L4.65297 9.5017L2.34073 2.56357ZM1.70363 1.07794C1.30482 0.860151 0.846618 1.2434 0.989453 1.67474L3.76626 10.0023L0.99016 18.3292C0.846617 18.7599 1.30553 19.1438 1.70434 18.926L17.2607 10.4407C17.6072 10.2512 17.6079 9.75272 17.26 9.56322L1.70363 1.07794Z" fill="#FF8A00"/>
<path d="M2.34073 2.56357L15.0595 9.50241L4.65297 9.5017L2.34073 2.56357Z" fill="#FF8A00"/>
<path d="M2.34073 17.4397L4.65297 10.5016L15.0595 10.5023L2.34073 17.4397Z" fill="#FF8A00"/>
<path d="M2.34073 17.4397L4.65297 10.5016L15.0595 10.5023L2.34073 17.4397ZM2.34073 2.56357L15.0595 9.50241L4.65297 9.5017L2.34073 2.56357ZM1.70363 1.07794C1.30482 0.860151 0.846618 1.2434 0.989453 1.67474L3.76626 10.0023L0.99016 18.3292C0.846617 18.7599 1.30553 19.1438 1.70434 18.926L17.2607 10.4407C17.6072 10.2512 17.6079 9.75272 17.26 9.56322L1.70363 1.07794Z" stroke="#FF8A00" stroke-width="0.5"/>
<path d="M2.34073 2.56357L15.0595 9.50241L4.65297 9.5017L2.34073 2.56357Z" stroke="#FF8A00" stroke-width="0.5"/>
<path d="M2.34073 17.4397L4.65297 10.5016L15.0595 10.5023L2.34073 17.4397Z" stroke="#FF8A00" stroke-width="0.5"/>
</svg>
