<svg width="20" height="20" viewBox="0 0 20 20" fill="none" xmlns="http://www.w3.org/2000/svg">
<path d="M15.8335 12.0833V4.58333C15.8335 3.89298 15.2739 3.33333 14.5835 3.33333H5.41683C4.72647 3.33333 4.16683 3.89298 4.16683 4.58333V15.4167C4.16683 16.107 4.72647 16.6667 5.41683 16.6667H11.2502C11.9405 16.6667 12.5002 16.107 12.5002 15.4167C12.5002 14.2661 13.4329 13.3333 14.5835 13.3333C15.2739 13.3333 15.8335 12.7737 15.8335 12.0833ZM15.418 13.9928C15.1625 14.1046 14.8803 14.1667 14.5835 14.1667C13.8931 14.1667 13.3335 14.7263 13.3335 15.4167C13.3335 15.7134 13.2714 15.9957 13.1596 16.2512C14.1563 15.7938 14.9607 14.9895 15.418 13.9928ZM3.3335 4.58333C3.3335 3.43274 4.26624 2.5 5.41683 2.5H14.5835C15.7341 2.5 16.6668 3.43274 16.6668 4.58333V12.0833C16.6668 15.0749 14.2417 17.5 11.2502 17.5H5.41683C4.26624 17.5 3.3335 16.5673 3.3335 15.4167V4.58333ZM7.0835 7.5C6.85338 7.5 6.66683 7.31345 6.66683 7.08333C6.66683 6.85321 6.85338 6.66667 7.0835 6.66667H12.9168C13.1469 6.66667 13.3335 6.85321 13.3335 7.08333C13.3335 7.31345 13.1469 7.5 12.9168 7.5H7.0835ZM7.0835 10C6.85338 10 6.66683 9.81345 6.66683 9.58333C6.66683 9.35321 6.85338 9.16667 7.0835 9.16667H12.9168C13.1469 9.16667 13.3335 9.35321 13.3335 9.58333C13.3335 9.81345 13.1469 10 12.9168 10H7.0835ZM7.0835 12.5C6.85338 12.5 6.66683 12.3135 6.66683 12.0833C6.66683 11.8532 6.85338 11.6667 7.0835 11.6667H11.2502C11.4803 11.6667 11.6668 11.8532 11.6668 12.0833C11.6668 12.3135 11.4803 12.5 11.2502 12.5H7.0835Z" fill="black"/>
</svg>
