<svg width="20" height="20" viewBox="0 0 20 20" fill="none" xmlns="http://www.w3.org/2000/svg">
<path d="M1.69469 9.84593C3.47324 5.25913 8.63339 2.98259 13.2202 4.76115C15.5544 5.66623 17.3999 7.51177 18.305 9.84593C18.3426 9.94284 18.3426 10.0503 18.305 10.1472C16.5264 14.734 11.3663 17.0105 6.77947 15.232C4.44531 14.3269 2.59977 12.4814 1.69469 10.1472C1.65711 10.0503 1.65711 9.94284 1.69469 9.84593ZM7.08075 14.455C11.1879 16.0476 15.8022 14.0533 17.4679 9.99661C16.6276 7.95212 14.9843 6.33896 12.9189 5.53812C8.81176 3.94554 4.19745 5.93988 2.53179 9.99653C3.3721 12.041 5.01541 13.6542 7.08075 14.455ZM9.99984 13.3299C8.15889 13.3299 6.6665 11.8375 6.6665 9.99657C6.6665 8.15562 8.15889 6.66324 9.99984 6.66324C11.8408 6.66324 13.3332 8.15562 13.3332 9.99657C13.3332 11.8375 11.8408 13.3299 9.99984 13.3299ZM9.99984 12.4966C11.3805 12.4966 12.4998 11.3773 12.4998 9.99657C12.4998 8.61586 11.3805 7.49657 9.99984 7.49657C8.61913 7.49657 7.49984 8.61586 7.49984 9.99657C7.49984 11.3773 8.61913 12.4966 9.99984 12.4966Z" fill="black"/>
</svg>
